<svg width="100" height="100" viewBox="0 0 100 100" fill="none" xmlns="http://www.w3.org/2000/svg">
<path d="M22.1621 60.4311L18.6813 73.4257L5.95879 73.6948C2.15664 66.6427 0 58.5741 0 49.9999C0 41.7087 2.01641 33.8899 5.59063 27.0054H5.59336L16.9199 29.0819L21.8816 40.3405C20.8432 43.3681 20.2771 46.6181 20.2771 49.9999C20.2775 53.6702 20.9424 57.1868 22.1621 60.4311Z" fill="#FBBB00"/>
<path d="M99.1265 40.6597C99.7007 43.6843 100 46.8079 100 50.0003C100 53.58 99.6238 57.0718 98.9068 60.4399C96.4728 71.9015 90.1128 81.9097 81.3025 88.9921L81.2998 88.9894L67.0333 88.2614L65.0142 75.6569C70.8603 72.2284 75.4291 66.863 77.8357 60.4399H51.0994V40.6597H78.2257H99.1265Z" fill="#518EF8"/>
<path d="M81.2994 88.9888L81.3021 88.9915C72.7336 95.8788 61.8488 99.9997 50 99.9997C30.9587 99.9997 14.4039 89.3569 5.95874 73.6948L22.1621 60.4312C26.3845 71.7003 37.2554 79.7224 50 79.7224C55.4779 79.7224 60.6099 78.2415 65.0136 75.6564L81.2994 88.9888Z" fill="#28B446"/>
<path d="M81.9148 11.5109L65.7169 24.7719C61.1593 21.923 55.7718 20.2773 50 20.2773C36.9669 20.2773 25.8927 28.6674 21.8818 40.3406L5.59331 27.0055H5.59058C13.9121 10.9615 30.6757 0 50 0C62.1318 0 73.2554 4.32148 81.9148 11.5109Z" fill="#F14336"/>
</svg>
