<svg width="32" height="29" viewBox="0 0 32 29" fill="none" xmlns="http://www.w3.org/2000/svg">
<path d="M8.21898 26.7344H3.79354C3.25992 26.7344 2.93798 26.4645 2.7936 26.3036C2.54435 26.0257 2.44779 25.6641 2.52885 25.3113C3.82692 19.6608 9.32942 15.5342 15.6817 15.4003C15.7875 15.4039 15.8935 15.4062 16.0002 15.4062C16.1079 15.4062 16.2149 15.4038 16.3216 15.4002C17.8749 15.4323 19.3922 15.697 20.8364 16.1885C21.4826 16.4085 22.2033 16.1119 22.446 15.5262C22.6887 14.9405 22.3615 14.2874 21.7152 14.0674C21.5082 13.997 21.2999 13.931 21.0905 13.8685C23.1593 12.4621 24.5002 10.2219 24.5002 7.70312C24.5002 3.45564 20.6872 0 16.0002 0C11.3133 0 7.50023 3.45564 7.50023 7.70312C7.50023 10.2241 8.84348 12.4661 10.9154 13.8723C9.01723 14.4386 7.23598 15.3193 5.6771 16.4813C2.81885 18.6119 0.83154 21.5838 0.0813528 24.8495C-0.153772 25.8728 0.127853 26.9238 0.85404 27.733C1.57654 28.5382 2.64798 29 3.79354 29H8.21898C8.90935 29 9.46898 28.4928 9.46898 27.8672C9.46898 27.2415 8.90935 26.7344 8.21898 26.7344ZM10.0002 7.70312C10.0002 4.70485 12.6918 2.26562 16.0002 2.26562C19.3087 2.26562 22.0002 4.70485 22.0002 7.70312C22.0002 10.6126 19.4656 12.9955 16.2924 13.1341C16.195 13.1325 16.0977 13.1312 16.0002 13.1312C15.9025 13.1312 15.8048 13.1325 15.7072 13.1341C12.5344 12.9951 10.0002 10.6123 10.0002 7.70312Z" fill="black"/>
<path d="M31.0431 19.5188C30.508 18.4341 29.3028 17.7313 27.9696 17.7285H24.0713C24.0685 17.7285 24.0659 17.7285 24.063 17.7285C22.6568 17.7285 21.4299 18.4796 20.9362 19.6434C20.8705 19.7982 20.7902 19.9933 20.7064 20.2207H12.5223C12.1843 20.2207 11.8608 20.3447 11.6254 20.5644L9.47815 22.5688C9.00522 23.0103 9.00759 23.7131 9.48347 24.1519L11.671 26.169C11.906 26.3857 12.2272 26.5078 12.5625 26.5078H16.625C17.3153 26.5078 17.875 26.0006 17.875 25.3749C17.875 24.7493 17.3153 24.2421 16.625 24.2421H13.0866L12.1223 23.353L13.0509 22.4863H21.6441C22.22 22.4863 22.7213 22.1298 22.8582 21.6229C22.9593 21.2487 23.0862 20.8889 23.2697 20.4563C23.3907 20.1711 23.6946 19.9941 24.066 19.9941C24.0668 19.9941 24.0677 19.9941 24.0685 19.9941H27.9667C28.3202 19.9949 28.6244 20.1671 28.7607 20.4434C29.0963 21.1238 29.497 22.1771 29.5 23.3313C29.503 24.4941 29.1027 25.5715 28.7663 26.2706C28.6307 26.5526 28.3238 26.7344 27.9813 26.7344C27.9806 26.7344 27.9799 26.7344 27.9792 26.7344H24.0339C23.6881 26.7336 23.3642 26.532 23.2279 26.2327C23.0817 25.9114 22.955 25.5447 22.8406 25.1113C22.6799 24.5029 22.0052 24.1277 21.334 24.2733C20.6626 24.4189 20.2486 25.0302 20.4093 25.6387C20.5543 26.188 20.7204 26.6649 20.9168 27.0965C21.4418 28.2499 22.663 28.9971 24.031 28.9999H27.9763C27.979 28.9999 27.9815 28.9999 27.9842 28.9999C29.3187 28.9999 30.5247 28.2846 31.058 27.1761C31.49 26.2782 32.004 24.8815 32 23.3259C31.996 21.7746 31.4774 20.3993 31.0431 19.5188Z" fill="black"/>
<path d="M26.9375 24.4688C27.6279 24.4688 28.1875 23.9616 28.1875 23.3359C28.1875 22.7103 27.6279 22.2031 26.9375 22.2031C26.2471 22.2031 25.6875 22.7103 25.6875 23.3359C25.6875 23.9616 26.2471 24.4688 26.9375 24.4688Z" fill="black"/>
</svg>
